<?xml version="1.0" standalone="no"?><!DOCTYPE svg PUBLIC "-//W3C//DTD SVG 1.1//EN" "http://www.w3.org/Graphics/SVG/1.1/DTD/svg11.dtd"><svg t="1651204461270" class="icon" viewBox="0 0 1024 1024" version="1.1" xmlns="http://www.w3.org/2000/svg" p-id="9120" xmlns:xlink="http://www.w3.org/1999/xlink" width="200" height="200"><defs><style type="text/css">@font-face { font-family: feedback-iconfont; src: url("//at.alicdn.com/t/font_1031158_u69w8yhxdu.woff2?t=1630033759944") format("woff2"), url("//at.alicdn.com/t/font_1031158_u69w8yhxdu.woff?t=1630033759944") format("woff"), url("//at.alicdn.com/t/font_1031158_u69w8yhxdu.ttf?t=1630033759944") format("truetype"); }
</style></defs><path d="M495.396857 245.242494l33.444716 0L528.841573 115.218138l-27.841092 0-0.596588 3.875261c-0.596588 3.934612-1.759063 7.153934-3.517103 9.628288-1.759063 2.533706-3.964288 4.620227-6.52767 6.200212-2.712785 1.609661-5.782703 2.772136-9.151427 3.3984-3.219321 0.596588-6.408967 0.924045-9.419534 0.924045l-6.52767-0.208754 0 27.78174 30.136368 0L495.396857 245.242494z" p-id="9121"></path><path d="M868.272239 571.855226 678.809143 571.855226c-3.934612 0-7.898901 0.417509-11.803837 1.251503L667.005306 327.365886c0-30.404474-24.442692-55.116295-54.490032-55.116295L412.767951 272.249591c-30.077016 0-54.519708 24.710798-54.519708 55.116295l0 117.326149c-3.845585-0.804319-7.809873-1.221828-11.803837-1.221828L157.009963 443.470207c-30.642904 0-55.56348 24.830525-55.56348 55.384401l0 354.990037c0 30.28577 24.442692 54.937217 54.490032 54.937217l713.378473 0c30.04734 0 54.490032-24.651446 54.490032-54.937217L923.80502 627.657136C923.806044 596.894506 898.885468 571.855226 868.272239 571.855226zM667.005306 627.657136c0-1.520633 1.221828-2.772136 2.742461-2.772136l198.525496 0c1.430582 0 2.712785 1.311879 2.712785 2.772136l0.89437 226.187509c0 1.430582-1.162476 2.622734-2.563382 2.622734L667.005306 856.467379 667.005306 627.657136zM410.174893 327.365886c0-1.489934 1.162476-2.683109 2.593058-2.683109l199.747323 0c1.400906 0 2.563382 1.192152 2.563382 2.683109l0 529.101493L410.174893 856.467379 410.174893 327.365886zM154.298202 498.854609c0-1.489934 1.221828-2.683109 2.712785-2.683109l198.733227 0c1.489934 0 2.712785 1.192152 2.712785 2.653433l-0.208754 357.64347L155.937538 856.468402c-1.400906 0-2.563382-1.192152-2.563382-2.622734L154.298202 498.854609z" p-id="9122"></path><path d="M749.724263 520.375761c4.263094 4.113691 9.568936 7.333012 15.769149 9.568936 6.081509 2.116197 12.788258 3.15997 19.942191 3.15997 6.259564 0 12.370749-0.953721 18.183128-2.801812 5.842055-1.877767 11.148921-4.709255 15.708773-8.375761 4.620227-3.78521 8.346085-8.495488 11.05887-13.980409 2.742461-5.573949 4.113691-11.95324 4.113691-18.957771 0-7.898901-2.206248-14.814404-6.52767-20.567431-2.324952-3.069919-5.187139-5.603625-8.525164-7.571443 2.2656-1.759063 4.202719-3.904936 5.723352-6.408967 3.248997-5.126764 4.888334-11.178597 4.888334-17.944697 0-6.229888-1.400906-11.833513-4.202719-16.632819-2.653433-4.620227-6.229888-8.644891-10.552334-11.923564-4.232394-3.189645-9.061376-5.603625-14.337543-7.18361-11.655458-3.457752-24.14491-3.099594-34.161031 0.983397-5.664 2.295276-10.522658 5.514597-14.486946 9.598612-4.02364 4.054339-7.18361 9.031701-9.419534 14.755052-2.175549 5.573949-3.3984 11.774161-3.63683 18.511609l-0.179079 4.739954 32.520671 0-0.089028-4.649903c-0.089028-5.126764 1.1328-9.360182 3.607154-12.579503 2.235924-2.921539 5.603625-4.352121 10.313903-4.352121 3.428076 0 6.349615 1.043772 8.942673 3.15997 2.324952 1.877767 3.457752 4.590552 3.457752 8.316409 0 2.354628-0.506537 4.202719-1.489934 5.425569-1.162476 1.460258-2.653433 2.593058-4.560876 3.428076-2.116197 0.89437-4.441149 1.430582-6.885827 1.609661-2.742461 0.268106-5.276167 0.268106-7.601118 0l-4.978385-0.447185 0 26.857694 4.560876 0c2.891863 0 5.872754 0.089028 9.092076 0.268106 2.683109 0.149403 5.216815 0.685615 7.512091 1.550309 1.907443 0.804319 3.517103 2.056845 4.799306 3.755534 1.1328 1.579985 1.759063 4.29277 1.759063 7.839549 0 4.560876-1.37123 7.988951-4.143367 10.492982-2.921539 2.653433-6.438643 3.934612-10.790764 3.934612-2.861164 0-5.246491-0.476861-7.124258-1.460258-1.997494-0.983397-3.607154-2.235924-4.888334-3.815909-1.400906-1.759063-2.444679-3.815909-3.130294-6.170536-0.804319-2.444679-1.251503-5.126764-1.37123-8.018627l-0.119727-4.381797-32.074509 0-0.029676 4.470825c-0.149403 7.66047 0.953721 14.546298 3.278673 20.389376C741.944066 510.926552 745.342466 516.113691 749.724263 520.375761z" p-id="9123"></path><path d="M288.913109 387.757325l-51.241035 0c1.013073-0.983397 2.056845-1.877767 3.130294-2.742461 3.725858-2.951215 7.630794-5.812379 11.625782-8.465812 4.143367-2.712785 8.257058-5.484921 12.311397-8.257058 4.381797-2.951215 8.286734-6.259564 11.625782-9.896394 3.487428-3.666506 6.349615-7.988951 8.584516-12.877285 2.206248-5.067412 3.278673-10.82044 3.278673-17.61724 0-6.497994-1.251503-12.489452-3.755534-17.85567-2.474354-5.276167-5.812379-9.68764-10.1645-13.443174-4.173043-3.577478-9.061376-6.349615-14.546298-8.257058-11.864212-4.113691-27.245528-3.517103-38.154995 1.251503-6.14086 2.742461-11.326976 6.677073-15.440667 11.625782-4.024663 4.888334-7.064906 10.671037-9.061376 17.140379-1.967818 6.438643-2.831488 13.413498-2.593058 20.74651l0.119727 4.411473 32.31294 0 0-4.560876c0-2.921539 0.297782-5.90243 0.835018-8.852622 0.596588-2.891863 1.520633-5.484921 2.712785-7.690146 1.1328-2.056845 2.593058-3.696182 4.501524-4.978385 1.669012-1.1328 3.815909-1.729387 6.408967-1.729387 4.02364 0 7.213285 1.192152 9.717316 3.607154 2.474354 2.444679 3.666506 5.872754 3.666506 10.492982 0 2.891863-0.626263 5.365194-1.907443 7.571443-1.37123 2.474354-3.15997 4.709255-5.276167 6.677073-2.384303 2.206248-4.888334 4.173043-7.482415 5.812379-3.040243 1.937119-5.90243 3.845585-8.55484 5.723352-5.15644 3.607154-10.075473 7.153934-14.755052 10.611685-4.799306 3.577478-9.121751 7.630794-12.847609 12.012591-3.725858 4.470825-6.706749 9.598612-8.912997 15.231913-2.145873 5.693676-3.248997 12.400425-3.248997 19.971867l0 4.560876 97.115851 0L288.917202 387.757325z" p-id="9124"></path></svg>